<mxfile host="app.diagrams.net" modified="2023-11-18T12:13:18.508Z" agent="Mozilla/5.0 (Windows NT 10.0; Win64; x64) AppleWebKit/537.36 (KHTML, like Gecko) Chrome/119.0.0.0 Safari/537.36" etag="HbNpGN6HEaDUgMEpF1Hd" version="22.1.3" type="device">
  <diagram name="Страница — 1" id="_OTbhV83RBaU2aULPtvj">
    <mxGraphModel dx="1932" dy="549" grid="1" gridSize="10" guides="1" tooltips="1" connect="1" arrows="1" fold="1" page="1" pageScale="1" pageWidth="827" pageHeight="1169" math="0" shadow="0">
      <root>
        <mxCell id="0" />
        <mxCell id="1" parent="0" />
        <mxCell id="o0gT_pDr-6tOgd6s8hg8-1" value="graphics_lib_pro" style="shape=folder;fontStyle=1;spacingTop=10;tabWidth=40;tabHeight=14;tabPosition=left;html=1;whiteSpace=wrap;horizontal=1;verticalAlign=top;" vertex="1" parent="1">
          <mxGeometry x="210" y="70" width="340" height="290" as="geometry" />
        </mxCell>
        <mxCell id="o0gT_pDr-6tOgd6s8hg8-2" value="CCanvas" style="swimlane;fontStyle=1;align=center;verticalAlign=top;childLayout=stackLayout;horizontal=1;startSize=26;horizontalStack=0;resizeParent=1;resizeParentMax=0;resizeLast=0;collapsible=1;marginBottom=0;whiteSpace=wrap;html=1;" vertex="1" parent="1">
          <mxGeometry x="300" y="240" width="170" height="104" as="geometry" />
        </mxCell>
        <mxCell id="o0gT_pDr-6tOgd6s8hg8-3" value="+ MoveTo(int x, int y)" style="text;strokeColor=none;fillColor=none;align=left;verticalAlign=top;spacingLeft=4;spacingRight=4;overflow=hidden;rotatable=0;points=[[0,0.5],[1,0.5]];portConstraint=eastwest;whiteSpace=wrap;html=1;" vertex="1" parent="o0gT_pDr-6tOgd6s8hg8-2">
          <mxGeometry y="26" width="170" height="26" as="geometry" />
        </mxCell>
        <mxCell id="o0gT_pDr-6tOgd6s8hg8-4" value="+ LineTo(int x, int y)" style="text;strokeColor=none;fillColor=none;align=left;verticalAlign=top;spacingLeft=4;spacingRight=4;overflow=hidden;rotatable=0;points=[[0,0.5],[1,0.5]];portConstraint=eastwest;whiteSpace=wrap;html=1;" vertex="1" parent="o0gT_pDr-6tOgd6s8hg8-2">
          <mxGeometry y="52" width="170" height="26" as="geometry" />
        </mxCell>
        <mxCell id="o0gT_pDr-6tOgd6s8hg8-56" value="+ SetColor(uint32_t rgbColor)" style="text;strokeColor=none;fillColor=none;align=left;verticalAlign=top;spacingLeft=4;spacingRight=4;overflow=hidden;rotatable=0;points=[[0,0.5],[1,0.5]];portConstraint=eastwest;whiteSpace=wrap;html=1;" vertex="1" parent="o0gT_pDr-6tOgd6s8hg8-2">
          <mxGeometry y="78" width="170" height="26" as="geometry" />
        </mxCell>
        <mxCell id="o0gT_pDr-6tOgd6s8hg8-5" value="&lt;p style=&quot;margin:0px;margin-top:4px;text-align:center;&quot;&gt;&lt;i&gt;&amp;lt;&amp;lt;Interface&amp;gt;&amp;gt;&lt;/i&gt;&lt;br&gt;&lt;b&gt;ICanvas&lt;/b&gt;&lt;/p&gt;&lt;hr size=&quot;1&quot;&gt;&lt;p style=&quot;margin:0px;margin-left:4px;&quot;&gt;+ MoveTo(int x, int y)&lt;br&gt;+ LineTo(int x, int y)&lt;/p&gt;&lt;p style=&quot;margin:0px;margin-left:4px;&quot;&gt;+ SetColor(uint32_t rgbColor)&lt;/p&gt;" style="verticalAlign=top;align=left;overflow=fill;fontSize=12;fontFamily=Helvetica;html=1;whiteSpace=wrap;" vertex="1" parent="1">
          <mxGeometry x="285" y="110" width="190" height="90" as="geometry" />
        </mxCell>
        <mxCell id="o0gT_pDr-6tOgd6s8hg8-6" value="" style="endArrow=block;dashed=1;endFill=0;endSize=12;html=1;rounded=0;" edge="1" parent="1" source="o0gT_pDr-6tOgd6s8hg8-2" target="o0gT_pDr-6tOgd6s8hg8-5">
          <mxGeometry width="160" relative="1" as="geometry">
            <mxPoint x="310" y="270" as="sourcePoint" />
            <mxPoint x="470" y="270" as="targetPoint" />
          </mxGeometry>
        </mxCell>
        <mxCell id="o0gT_pDr-6tOgd6s8hg8-7" value="modern_graphics_lib_pro" style="shape=folder;fontStyle=1;spacingTop=10;tabWidth=40;tabHeight=14;tabPosition=left;html=1;whiteSpace=wrap;verticalAlign=top;" vertex="1" parent="1">
          <mxGeometry x="200" y="440" width="450" height="710" as="geometry" />
        </mxCell>
        <mxCell id="o0gT_pDr-6tOgd6s8hg8-8" value="CPoint" style="swimlane;fontStyle=1;align=center;verticalAlign=top;childLayout=stackLayout;horizontal=1;startSize=26;horizontalStack=0;resizeParent=1;resizeParentMax=0;resizeLast=0;collapsible=1;marginBottom=0;whiteSpace=wrap;html=1;" vertex="1" parent="1">
          <mxGeometry x="260" y="730" width="160" height="78" as="geometry" />
        </mxCell>
        <mxCell id="o0gT_pDr-6tOgd6s8hg8-9" value="+ x: int" style="text;strokeColor=none;fillColor=none;align=left;verticalAlign=top;spacingLeft=4;spacingRight=4;overflow=hidden;rotatable=0;points=[[0,0.5],[1,0.5]];portConstraint=eastwest;whiteSpace=wrap;html=1;" vertex="1" parent="o0gT_pDr-6tOgd6s8hg8-8">
          <mxGeometry y="26" width="160" height="26" as="geometry" />
        </mxCell>
        <mxCell id="o0gT_pDr-6tOgd6s8hg8-10" value="+ y: int" style="text;strokeColor=none;fillColor=none;align=left;verticalAlign=top;spacingLeft=4;spacingRight=4;overflow=hidden;rotatable=0;points=[[0,0.5],[1,0.5]];portConstraint=eastwest;whiteSpace=wrap;html=1;" vertex="1" parent="o0gT_pDr-6tOgd6s8hg8-8">
          <mxGeometry y="52" width="160" height="26" as="geometry" />
        </mxCell>
        <mxCell id="o0gT_pDr-6tOgd6s8hg8-11" value="CModernGraphicsRenderer" style="swimlane;fontStyle=1;align=center;verticalAlign=top;childLayout=stackLayout;horizontal=1;startSize=26;horizontalStack=0;resizeParent=1;resizeParentMax=0;resizeLast=0;collapsible=1;marginBottom=0;whiteSpace=wrap;html=1;" vertex="1" parent="1">
          <mxGeometry x="210" y="490" width="320" height="164" as="geometry" />
        </mxCell>
        <mxCell id="o0gT_pDr-6tOgd6s8hg8-12" value="- m_out: ostream" style="text;strokeColor=none;fillColor=none;align=left;verticalAlign=top;spacingLeft=4;spacingRight=4;overflow=hidden;rotatable=0;points=[[0,0.5],[1,0.5]];portConstraint=eastwest;whiteSpace=wrap;html=1;" vertex="1" parent="o0gT_pDr-6tOgd6s8hg8-11">
          <mxGeometry y="26" width="320" height="26" as="geometry" />
        </mxCell>
        <mxCell id="o0gT_pDr-6tOgd6s8hg8-13" value="- m_drawing: bool" style="text;strokeColor=none;fillColor=none;align=left;verticalAlign=top;spacingLeft=4;spacingRight=4;overflow=hidden;rotatable=0;points=[[0,0.5],[1,0.5]];portConstraint=eastwest;whiteSpace=wrap;html=1;" vertex="1" parent="o0gT_pDr-6tOgd6s8hg8-11">
          <mxGeometry y="52" width="320" height="26" as="geometry" />
        </mxCell>
        <mxCell id="o0gT_pDr-6tOgd6s8hg8-14" value="" style="line;strokeWidth=1;fillColor=none;align=left;verticalAlign=middle;spacingTop=-1;spacingLeft=3;spacingRight=3;rotatable=0;labelPosition=right;points=[];portConstraint=eastwest;strokeColor=inherit;" vertex="1" parent="o0gT_pDr-6tOgd6s8hg8-11">
          <mxGeometry y="78" width="320" height="8" as="geometry" />
        </mxCell>
        <mxCell id="o0gT_pDr-6tOgd6s8hg8-15" value="+ BeginDraw()" style="text;strokeColor=none;fillColor=none;align=left;verticalAlign=top;spacingLeft=4;spacingRight=4;overflow=hidden;rotatable=0;points=[[0,0.5],[1,0.5]];portConstraint=eastwest;whiteSpace=wrap;html=1;" vertex="1" parent="o0gT_pDr-6tOgd6s8hg8-11">
          <mxGeometry y="86" width="320" height="26" as="geometry" />
        </mxCell>
        <mxCell id="o0gT_pDr-6tOgd6s8hg8-16" value="+ DrawLine(CPoint start, CPoint end, CRGBAColor color)" style="text;strokeColor=none;fillColor=none;align=left;verticalAlign=top;spacingLeft=4;spacingRight=4;overflow=hidden;rotatable=0;points=[[0,0.5],[1,0.5]];portConstraint=eastwest;whiteSpace=wrap;html=1;" vertex="1" parent="o0gT_pDr-6tOgd6s8hg8-11">
          <mxGeometry y="112" width="320" height="26" as="geometry" />
        </mxCell>
        <mxCell id="o0gT_pDr-6tOgd6s8hg8-17" value="+ EndDraw()" style="text;strokeColor=none;fillColor=none;align=left;verticalAlign=top;spacingLeft=4;spacingRight=4;overflow=hidden;rotatable=0;points=[[0,0.5],[1,0.5]];portConstraint=eastwest;whiteSpace=wrap;html=1;" vertex="1" parent="o0gT_pDr-6tOgd6s8hg8-11">
          <mxGeometry y="138" width="320" height="26" as="geometry" />
        </mxCell>
        <mxCell id="o0gT_pDr-6tOgd6s8hg8-18" value="shape_drawing_lib" style="shape=folder;fontStyle=1;spacingTop=10;tabWidth=40;tabHeight=14;tabPosition=left;html=1;whiteSpace=wrap;verticalAlign=top;" vertex="1" parent="1">
          <mxGeometry x="740" y="140" width="680" height="580" as="geometry" />
        </mxCell>
        <mxCell id="o0gT_pDr-6tOgd6s8hg8-19" value="Point" style="swimlane;fontStyle=1;align=center;verticalAlign=top;childLayout=stackLayout;horizontal=1;startSize=26;horizontalStack=0;resizeParent=1;resizeParentMax=0;resizeLast=0;collapsible=1;marginBottom=0;whiteSpace=wrap;html=1;" vertex="1" parent="1">
          <mxGeometry x="1180" y="585" width="160" height="78" as="geometry" />
        </mxCell>
        <mxCell id="o0gT_pDr-6tOgd6s8hg8-20" value="+ x: int" style="text;strokeColor=none;fillColor=none;align=left;verticalAlign=top;spacingLeft=4;spacingRight=4;overflow=hidden;rotatable=0;points=[[0,0.5],[1,0.5]];portConstraint=eastwest;whiteSpace=wrap;html=1;" vertex="1" parent="o0gT_pDr-6tOgd6s8hg8-19">
          <mxGeometry y="26" width="160" height="26" as="geometry" />
        </mxCell>
        <mxCell id="o0gT_pDr-6tOgd6s8hg8-21" value="+ y: int" style="text;strokeColor=none;fillColor=none;align=left;verticalAlign=top;spacingLeft=4;spacingRight=4;overflow=hidden;rotatable=0;points=[[0,0.5],[1,0.5]];portConstraint=eastwest;whiteSpace=wrap;html=1;" vertex="1" parent="o0gT_pDr-6tOgd6s8hg8-19">
          <mxGeometry y="52" width="160" height="26" as="geometry" />
        </mxCell>
        <mxCell id="o0gT_pDr-6tOgd6s8hg8-22" value="&lt;p style=&quot;margin:0px;margin-top:4px;text-align:center;&quot;&gt;&lt;i&gt;&amp;lt;&amp;lt;Interface&amp;gt;&amp;gt;&lt;/i&gt;&lt;br&gt;&lt;b&gt;ICanvasDrawable&lt;/b&gt;&lt;/p&gt;&lt;hr size=&quot;1&quot;&gt;&lt;p style=&quot;margin:0px;margin-left:4px;&quot;&gt;+ Draw(graphics_lib::ICanvas canvas)&lt;br&gt;&lt;/p&gt;" style="verticalAlign=top;align=left;overflow=fill;fontSize=12;fontFamily=Helvetica;html=1;whiteSpace=wrap;" vertex="1" parent="1">
          <mxGeometry x="1051" y="209" width="209" height="71" as="geometry" />
        </mxCell>
        <mxCell id="o0gT_pDr-6tOgd6s8hg8-23" value="CTriangle" style="swimlane;fontStyle=1;align=center;verticalAlign=top;childLayout=stackLayout;horizontal=1;startSize=26;horizontalStack=0;resizeParent=1;resizeParentMax=0;resizeLast=0;collapsible=1;marginBottom=0;whiteSpace=wrap;html=1;" vertex="1" parent="1">
          <mxGeometry x="900" y="410" width="220" height="164" as="geometry" />
        </mxCell>
        <mxCell id="o0gT_pDr-6tOgd6s8hg8-24" value="- m_p1: Point" style="text;strokeColor=none;fillColor=none;align=left;verticalAlign=top;spacingLeft=4;spacingRight=4;overflow=hidden;rotatable=0;points=[[0,0.5],[1,0.5]];portConstraint=eastwest;whiteSpace=wrap;html=1;" vertex="1" parent="o0gT_pDr-6tOgd6s8hg8-23">
          <mxGeometry y="26" width="220" height="26" as="geometry" />
        </mxCell>
        <mxCell id="o0gT_pDr-6tOgd6s8hg8-25" value="- m_p1: Point" style="text;strokeColor=none;fillColor=none;align=left;verticalAlign=top;spacingLeft=4;spacingRight=4;overflow=hidden;rotatable=0;points=[[0,0.5],[1,0.5]];portConstraint=eastwest;whiteSpace=wrap;html=1;" vertex="1" parent="o0gT_pDr-6tOgd6s8hg8-23">
          <mxGeometry y="52" width="220" height="26" as="geometry" />
        </mxCell>
        <mxCell id="o0gT_pDr-6tOgd6s8hg8-26" value="- m_p3: Point" style="text;strokeColor=none;fillColor=none;align=left;verticalAlign=top;spacingLeft=4;spacingRight=4;overflow=hidden;rotatable=0;points=[[0,0.5],[1,0.5]];portConstraint=eastwest;whiteSpace=wrap;html=1;" vertex="1" parent="o0gT_pDr-6tOgd6s8hg8-23">
          <mxGeometry y="78" width="220" height="26" as="geometry" />
        </mxCell>
        <mxCell id="o0gT_pDr-6tOgd6s8hg8-57" value="- m_color: uint32_t" style="text;strokeColor=none;fillColor=none;align=left;verticalAlign=top;spacingLeft=4;spacingRight=4;overflow=hidden;rotatable=0;points=[[0,0.5],[1,0.5]];portConstraint=eastwest;whiteSpace=wrap;html=1;" vertex="1" parent="o0gT_pDr-6tOgd6s8hg8-23">
          <mxGeometry y="104" width="220" height="26" as="geometry" />
        </mxCell>
        <mxCell id="o0gT_pDr-6tOgd6s8hg8-27" value="" style="line;strokeWidth=1;fillColor=none;align=left;verticalAlign=middle;spacingTop=-1;spacingLeft=3;spacingRight=3;rotatable=0;labelPosition=right;points=[];portConstraint=eastwest;strokeColor=inherit;" vertex="1" parent="o0gT_pDr-6tOgd6s8hg8-23">
          <mxGeometry y="130" width="220" height="8" as="geometry" />
        </mxCell>
        <mxCell id="o0gT_pDr-6tOgd6s8hg8-28" value="+ Draw(graphics_lib::ICanvas canvas)" style="text;strokeColor=none;fillColor=none;align=left;verticalAlign=top;spacingLeft=4;spacingRight=4;overflow=hidden;rotatable=0;points=[[0,0.5],[1,0.5]];portConstraint=eastwest;whiteSpace=wrap;html=1;" vertex="1" parent="o0gT_pDr-6tOgd6s8hg8-23">
          <mxGeometry y="138" width="220" height="26" as="geometry" />
        </mxCell>
        <mxCell id="o0gT_pDr-6tOgd6s8hg8-29" value="CRectangle" style="swimlane;fontStyle=1;align=center;verticalAlign=top;childLayout=stackLayout;horizontal=1;startSize=26;horizontalStack=0;resizeParent=1;resizeParentMax=0;resizeLast=0;collapsible=1;marginBottom=0;whiteSpace=wrap;html=1;" vertex="1" parent="1">
          <mxGeometry x="1190" y="400" width="220" height="164" as="geometry" />
        </mxCell>
        <mxCell id="o0gT_pDr-6tOgd6s8hg8-30" value="- m_leftTop: Point" style="text;strokeColor=none;fillColor=none;align=left;verticalAlign=top;spacingLeft=4;spacingRight=4;overflow=hidden;rotatable=0;points=[[0,0.5],[1,0.5]];portConstraint=eastwest;whiteSpace=wrap;html=1;" vertex="1" parent="o0gT_pDr-6tOgd6s8hg8-29">
          <mxGeometry y="26" width="220" height="26" as="geometry" />
        </mxCell>
        <mxCell id="o0gT_pDr-6tOgd6s8hg8-31" value="- m_width: int" style="text;strokeColor=none;fillColor=none;align=left;verticalAlign=top;spacingLeft=4;spacingRight=4;overflow=hidden;rotatable=0;points=[[0,0.5],[1,0.5]];portConstraint=eastwest;whiteSpace=wrap;html=1;" vertex="1" parent="o0gT_pDr-6tOgd6s8hg8-29">
          <mxGeometry y="52" width="220" height="26" as="geometry" />
        </mxCell>
        <mxCell id="o0gT_pDr-6tOgd6s8hg8-32" value="- m_height: int" style="text;strokeColor=none;fillColor=none;align=left;verticalAlign=top;spacingLeft=4;spacingRight=4;overflow=hidden;rotatable=0;points=[[0,0.5],[1,0.5]];portConstraint=eastwest;whiteSpace=wrap;html=1;" vertex="1" parent="o0gT_pDr-6tOgd6s8hg8-29">
          <mxGeometry y="78" width="220" height="26" as="geometry" />
        </mxCell>
        <mxCell id="o0gT_pDr-6tOgd6s8hg8-58" value="- m_color: uint32_t" style="text;strokeColor=none;fillColor=none;align=left;verticalAlign=top;spacingLeft=4;spacingRight=4;overflow=hidden;rotatable=0;points=[[0,0.5],[1,0.5]];portConstraint=eastwest;whiteSpace=wrap;html=1;" vertex="1" parent="o0gT_pDr-6tOgd6s8hg8-29">
          <mxGeometry y="104" width="220" height="26" as="geometry" />
        </mxCell>
        <mxCell id="o0gT_pDr-6tOgd6s8hg8-33" value="" style="line;strokeWidth=1;fillColor=none;align=left;verticalAlign=middle;spacingTop=-1;spacingLeft=3;spacingRight=3;rotatable=0;labelPosition=right;points=[];portConstraint=eastwest;strokeColor=inherit;" vertex="1" parent="o0gT_pDr-6tOgd6s8hg8-29">
          <mxGeometry y="130" width="220" height="8" as="geometry" />
        </mxCell>
        <mxCell id="o0gT_pDr-6tOgd6s8hg8-34" value="+ Draw(graphics_lib::ICanvas canvas)" style="text;strokeColor=none;fillColor=none;align=left;verticalAlign=top;spacingLeft=4;spacingRight=4;overflow=hidden;rotatable=0;points=[[0,0.5],[1,0.5]];portConstraint=eastwest;whiteSpace=wrap;html=1;" vertex="1" parent="o0gT_pDr-6tOgd6s8hg8-29">
          <mxGeometry y="138" width="220" height="26" as="geometry" />
        </mxCell>
        <mxCell id="o0gT_pDr-6tOgd6s8hg8-35" value="" style="endArrow=block;dashed=1;endFill=0;endSize=12;html=1;rounded=0;" edge="1" parent="1" source="o0gT_pDr-6tOgd6s8hg8-23" target="o0gT_pDr-6tOgd6s8hg8-22">
          <mxGeometry width="160" relative="1" as="geometry">
            <mxPoint x="1040" y="390" as="sourcePoint" />
            <mxPoint x="1200" y="390" as="targetPoint" />
          </mxGeometry>
        </mxCell>
        <mxCell id="o0gT_pDr-6tOgd6s8hg8-36" value="" style="endArrow=block;dashed=1;endFill=0;endSize=12;html=1;rounded=0;" edge="1" parent="1" source="o0gT_pDr-6tOgd6s8hg8-29" target="o0gT_pDr-6tOgd6s8hg8-22">
          <mxGeometry width="160" relative="1" as="geometry">
            <mxPoint x="1040" y="390" as="sourcePoint" />
            <mxPoint x="1200" y="390" as="targetPoint" />
          </mxGeometry>
        </mxCell>
        <mxCell id="o0gT_pDr-6tOgd6s8hg8-37" value="CCanvasPainter" style="swimlane;fontStyle=1;align=center;verticalAlign=top;childLayout=stackLayout;horizontal=1;startSize=26;horizontalStack=0;resizeParent=1;resizeParentMax=0;resizeLast=0;collapsible=1;marginBottom=0;whiteSpace=wrap;html=1;" vertex="1" parent="1">
          <mxGeometry x="770" y="290" width="210" height="86" as="geometry" />
        </mxCell>
        <mxCell id="o0gT_pDr-6tOgd6s8hg8-38" value="- m_canvas: graphics_lib::ICanvas" style="text;strokeColor=none;fillColor=none;align=left;verticalAlign=top;spacingLeft=4;spacingRight=4;overflow=hidden;rotatable=0;points=[[0,0.5],[1,0.5]];portConstraint=eastwest;whiteSpace=wrap;html=1;" vertex="1" parent="o0gT_pDr-6tOgd6s8hg8-37">
          <mxGeometry y="26" width="210" height="26" as="geometry" />
        </mxCell>
        <mxCell id="o0gT_pDr-6tOgd6s8hg8-39" value="" style="line;strokeWidth=1;fillColor=none;align=left;verticalAlign=middle;spacingTop=-1;spacingLeft=3;spacingRight=3;rotatable=0;labelPosition=right;points=[];portConstraint=eastwest;strokeColor=inherit;" vertex="1" parent="o0gT_pDr-6tOgd6s8hg8-37">
          <mxGeometry y="52" width="210" height="8" as="geometry" />
        </mxCell>
        <mxCell id="o0gT_pDr-6tOgd6s8hg8-40" value="+ Draw(ICanvasDrawable drawable)" style="text;strokeColor=none;fillColor=none;align=left;verticalAlign=top;spacingLeft=4;spacingRight=4;overflow=hidden;rotatable=0;points=[[0,0.5],[1,0.5]];portConstraint=eastwest;whiteSpace=wrap;html=1;" vertex="1" parent="o0gT_pDr-6tOgd6s8hg8-37">
          <mxGeometry y="60" width="210" height="26" as="geometry" />
        </mxCell>
        <mxCell id="o0gT_pDr-6tOgd6s8hg8-41" value="CAdapterModernGraphicsObjectPro" style="swimlane;fontStyle=1;align=center;verticalAlign=top;childLayout=stackLayout;horizontal=1;startSize=26;horizontalStack=0;resizeParent=1;resizeParentMax=0;resizeLast=0;collapsible=1;marginBottom=0;whiteSpace=wrap;html=1;fillColor=#dae8fc;strokeColor=#6c8ebf;" vertex="1" parent="1">
          <mxGeometry x="-270" y="460" width="390" height="190" as="geometry" />
        </mxCell>
        <mxCell id="o0gT_pDr-6tOgd6s8hg8-42" value="- m_renderer: modern_graphics_lib_pro::CModernGraphicsRenderer" style="text;strokeColor=#6c8ebf;fillColor=#dae8fc;align=left;verticalAlign=top;spacingLeft=4;spacingRight=4;overflow=hidden;rotatable=0;points=[[0,0.5],[1,0.5]];portConstraint=eastwest;whiteSpace=wrap;html=1;" vertex="1" parent="o0gT_pDr-6tOgd6s8hg8-41">
          <mxGeometry y="26" width="390" height="26" as="geometry" />
        </mxCell>
        <mxCell id="o0gT_pDr-6tOgd6s8hg8-69" value="- m_color: modern_graphics_lib_pro::CRGBAColor" style="text;strokeColor=#6c8ebf;fillColor=#dae8fc;align=left;verticalAlign=top;spacingLeft=4;spacingRight=4;overflow=hidden;rotatable=0;points=[[0,0.5],[1,0.5]];portConstraint=eastwest;whiteSpace=wrap;html=1;" vertex="1" parent="o0gT_pDr-6tOgd6s8hg8-41">
          <mxGeometry y="52" width="390" height="26" as="geometry" />
        </mxCell>
        <mxCell id="o0gT_pDr-6tOgd6s8hg8-43" value="- m_currPoint: modern_graphics_lib_pro::CPoint" style="text;strokeColor=#6c8ebf;fillColor=#dae8fc;align=left;verticalAlign=top;spacingLeft=4;spacingRight=4;overflow=hidden;rotatable=0;points=[[0,0.5],[1,0.5]];portConstraint=eastwest;whiteSpace=wrap;html=1;" vertex="1" parent="o0gT_pDr-6tOgd6s8hg8-41">
          <mxGeometry y="78" width="390" height="26" as="geometry" />
        </mxCell>
        <mxCell id="o0gT_pDr-6tOgd6s8hg8-44" value="" style="line;strokeWidth=1;fillColor=#dae8fc;align=left;verticalAlign=middle;spacingTop=-1;spacingLeft=3;spacingRight=3;rotatable=0;labelPosition=right;points=[];portConstraint=eastwest;strokeColor=#6c8ebf;" vertex="1" parent="o0gT_pDr-6tOgd6s8hg8-41">
          <mxGeometry y="104" width="390" height="8" as="geometry" />
        </mxCell>
        <mxCell id="o0gT_pDr-6tOgd6s8hg8-45" value="+ MoveTo(int x, int y)" style="text;strokeColor=#6c8ebf;fillColor=#dae8fc;align=left;verticalAlign=top;spacingLeft=4;spacingRight=4;overflow=hidden;rotatable=0;points=[[0,0.5],[1,0.5]];portConstraint=eastwest;whiteSpace=wrap;html=1;" vertex="1" parent="o0gT_pDr-6tOgd6s8hg8-41">
          <mxGeometry y="112" width="390" height="26" as="geometry" />
        </mxCell>
        <mxCell id="o0gT_pDr-6tOgd6s8hg8-46" value="+ LineTo(int x, int y)" style="text;strokeColor=#6c8ebf;fillColor=#dae8fc;align=left;verticalAlign=top;spacingLeft=4;spacingRight=4;overflow=hidden;rotatable=0;points=[[0,0.5],[1,0.5]];portConstraint=eastwest;whiteSpace=wrap;html=1;" vertex="1" parent="o0gT_pDr-6tOgd6s8hg8-41">
          <mxGeometry y="138" width="390" height="26" as="geometry" />
        </mxCell>
        <mxCell id="o0gT_pDr-6tOgd6s8hg8-68" value="+ SetColor(uint32_t rgbColor)" style="text;strokeColor=#6c8ebf;fillColor=#dae8fc;align=left;verticalAlign=top;spacingLeft=4;spacingRight=4;overflow=hidden;rotatable=0;points=[[0,0.5],[1,0.5]];portConstraint=eastwest;whiteSpace=wrap;html=1;" vertex="1" parent="o0gT_pDr-6tOgd6s8hg8-41">
          <mxGeometry y="164" width="390" height="26" as="geometry" />
        </mxCell>
        <mxCell id="o0gT_pDr-6tOgd6s8hg8-47" value="" style="endArrow=diamondThin;endFill=1;endSize=24;html=1;rounded=0;" edge="1" parent="1" source="o0gT_pDr-6tOgd6s8hg8-19" target="o0gT_pDr-6tOgd6s8hg8-23">
          <mxGeometry width="160" relative="1" as="geometry">
            <mxPoint x="820" y="410" as="sourcePoint" />
            <mxPoint x="980" y="410" as="targetPoint" />
          </mxGeometry>
        </mxCell>
        <mxCell id="o0gT_pDr-6tOgd6s8hg8-48" value="" style="endArrow=diamondThin;endFill=1;endSize=24;html=1;rounded=0;" edge="1" parent="1" source="o0gT_pDr-6tOgd6s8hg8-19" target="o0gT_pDr-6tOgd6s8hg8-29">
          <mxGeometry width="160" relative="1" as="geometry">
            <mxPoint x="820" y="410" as="sourcePoint" />
            <mxPoint x="980" y="410" as="targetPoint" />
          </mxGeometry>
        </mxCell>
        <mxCell id="o0gT_pDr-6tOgd6s8hg8-49" value="Use" style="endArrow=open;endSize=12;dashed=1;html=1;rounded=0;" edge="1" parent="1" source="o0gT_pDr-6tOgd6s8hg8-37" target="o0gT_pDr-6tOgd6s8hg8-22">
          <mxGeometry width="160" relative="1" as="geometry">
            <mxPoint x="820" y="410" as="sourcePoint" />
            <mxPoint x="890" y="110" as="targetPoint" />
          </mxGeometry>
        </mxCell>
        <mxCell id="o0gT_pDr-6tOgd6s8hg8-50" value="" style="endArrow=diamondThin;endFill=0;endSize=24;html=1;rounded=0;" edge="1" parent="1" source="o0gT_pDr-6tOgd6s8hg8-5" target="o0gT_pDr-6tOgd6s8hg8-37">
          <mxGeometry width="160" relative="1" as="geometry">
            <mxPoint x="805" y="268.89092783505157" as="sourcePoint" />
            <mxPoint x="520" y="220.11773195876287" as="targetPoint" />
          </mxGeometry>
        </mxCell>
        <mxCell id="o0gT_pDr-6tOgd6s8hg8-51" value="Use" style="endArrow=open;endSize=12;dashed=1;html=1;rounded=0;" edge="1" parent="1" source="o0gT_pDr-6tOgd6s8hg8-22" target="o0gT_pDr-6tOgd6s8hg8-5">
          <mxGeometry width="160" relative="1" as="geometry">
            <mxPoint x="820" y="410" as="sourcePoint" />
            <mxPoint x="980" y="410" as="targetPoint" />
          </mxGeometry>
        </mxCell>
        <mxCell id="o0gT_pDr-6tOgd6s8hg8-52" value="Use" style="endArrow=open;endSize=12;dashed=1;html=1;rounded=0;" edge="1" parent="1" source="o0gT_pDr-6tOgd6s8hg8-11" target="o0gT_pDr-6tOgd6s8hg8-8">
          <mxGeometry width="160" relative="1" as="geometry">
            <mxPoint x="390" y="480" as="sourcePoint" />
            <mxPoint x="550" y="480" as="targetPoint" />
          </mxGeometry>
        </mxCell>
        <mxCell id="o0gT_pDr-6tOgd6s8hg8-53" value="" style="endArrow=block;dashed=1;endFill=0;endSize=12;html=1;rounded=0;" edge="1" parent="1" source="o0gT_pDr-6tOgd6s8hg8-41" target="o0gT_pDr-6tOgd6s8hg8-5">
          <mxGeometry width="160" relative="1" as="geometry">
            <mxPoint x="430" y="410" as="sourcePoint" />
            <mxPoint x="590" y="410" as="targetPoint" />
          </mxGeometry>
        </mxCell>
        <mxCell id="o0gT_pDr-6tOgd6s8hg8-54" value="" style="endArrow=diamondThin;endFill=1;endSize=24;html=1;rounded=0;" edge="1" parent="1" source="o0gT_pDr-6tOgd6s8hg8-8" target="o0gT_pDr-6tOgd6s8hg8-41">
          <mxGeometry width="160" relative="1" as="geometry">
            <mxPoint x="-100" y="670" as="sourcePoint" />
            <mxPoint x="60" y="670" as="targetPoint" />
          </mxGeometry>
        </mxCell>
        <mxCell id="o0gT_pDr-6tOgd6s8hg8-55" value="" style="endArrow=diamondThin;endFill=0;endSize=24;html=1;rounded=0;" edge="1" parent="1" source="o0gT_pDr-6tOgd6s8hg8-11" target="o0gT_pDr-6tOgd6s8hg8-41">
          <mxGeometry width="160" relative="1" as="geometry">
            <mxPoint x="360" y="510" as="sourcePoint" />
            <mxPoint x="520" y="510" as="targetPoint" />
          </mxGeometry>
        </mxCell>
        <mxCell id="o0gT_pDr-6tOgd6s8hg8-59" value="CRGBAColor" style="swimlane;fontStyle=1;align=center;verticalAlign=top;childLayout=stackLayout;horizontal=1;startSize=26;horizontalStack=0;resizeParent=1;resizeParentMax=0;resizeLast=0;collapsible=1;marginBottom=0;whiteSpace=wrap;html=1;" vertex="1" parent="1">
          <mxGeometry x="475" y="1000" width="160" height="130" as="geometry" />
        </mxCell>
        <mxCell id="o0gT_pDr-6tOgd6s8hg8-60" value="+ r: float" style="text;strokeColor=none;fillColor=none;align=left;verticalAlign=top;spacingLeft=4;spacingRight=4;overflow=hidden;rotatable=0;points=[[0,0.5],[1,0.5]];portConstraint=eastwest;whiteSpace=wrap;html=1;" vertex="1" parent="o0gT_pDr-6tOgd6s8hg8-59">
          <mxGeometry y="26" width="160" height="26" as="geometry" />
        </mxCell>
        <mxCell id="o0gT_pDr-6tOgd6s8hg8-64" value="+ g: float" style="text;strokeColor=none;fillColor=none;align=left;verticalAlign=top;spacingLeft=4;spacingRight=4;overflow=hidden;rotatable=0;points=[[0,0.5],[1,0.5]];portConstraint=eastwest;whiteSpace=wrap;html=1;" vertex="1" parent="o0gT_pDr-6tOgd6s8hg8-59">
          <mxGeometry y="52" width="160" height="26" as="geometry" />
        </mxCell>
        <mxCell id="o0gT_pDr-6tOgd6s8hg8-65" value="+ b: float" style="text;strokeColor=none;fillColor=none;align=left;verticalAlign=top;spacingLeft=4;spacingRight=4;overflow=hidden;rotatable=0;points=[[0,0.5],[1,0.5]];portConstraint=eastwest;whiteSpace=wrap;html=1;" vertex="1" parent="o0gT_pDr-6tOgd6s8hg8-59">
          <mxGeometry y="78" width="160" height="26" as="geometry" />
        </mxCell>
        <mxCell id="o0gT_pDr-6tOgd6s8hg8-63" value="+ a: float" style="text;strokeColor=none;fillColor=none;align=left;verticalAlign=top;spacingLeft=4;spacingRight=4;overflow=hidden;rotatable=0;points=[[0,0.5],[1,0.5]];portConstraint=eastwest;whiteSpace=wrap;html=1;" vertex="1" parent="o0gT_pDr-6tOgd6s8hg8-59">
          <mxGeometry y="104" width="160" height="26" as="geometry" />
        </mxCell>
        <mxCell id="o0gT_pDr-6tOgd6s8hg8-67" value="Use" style="endArrow=open;endSize=12;dashed=1;html=1;rounded=0;" edge="1" parent="1" source="o0gT_pDr-6tOgd6s8hg8-11" target="o0gT_pDr-6tOgd6s8hg8-59">
          <mxGeometry width="160" relative="1" as="geometry">
            <mxPoint x="510" y="640" as="sourcePoint" />
            <mxPoint x="670" y="640" as="targetPoint" />
          </mxGeometry>
        </mxCell>
        <mxCell id="o0gT_pDr-6tOgd6s8hg8-70" value="" style="endArrow=diamondThin;endFill=1;endSize=24;html=1;rounded=0;" edge="1" parent="1" source="o0gT_pDr-6tOgd6s8hg8-59" target="o0gT_pDr-6tOgd6s8hg8-41">
          <mxGeometry width="160" relative="1" as="geometry">
            <mxPoint x="50" y="740" as="sourcePoint" />
            <mxPoint x="210" y="740" as="targetPoint" />
          </mxGeometry>
        </mxCell>
      </root>
    </mxGraphModel>
  </diagram>
</mxfile>
